<svg width="77" height="77" viewBox="0 0 77 77" fill="none" xmlns="http://www.w3.org/2000/svg">
<path d="M31.03 35.37C29.45 35.37 28.16 34.85 27.16 33.81C26.16 32.77 25.66 31.35 25.66 29.55C25.66 28.37 25.89 27.34 26.35 26.46C26.81 25.58 27.44 24.91 28.24 24.45C29.06 23.97 29.99 23.73 31.03 23.73C32.63 23.73 33.93 24.26 34.93 25.32C35.93 26.36 36.43 27.77 36.43 29.55C36.43 31.35 35.93 32.77 34.93 33.81C33.93 34.85 32.63 35.37 31.03 35.37ZM43.45 24H47.77L33.43 45H29.11L43.45 24ZM31.03 32.52C31.57 32.52 32 32.28 32.32 31.8C32.64 31.32 32.8 30.57 32.8 29.55C32.8 28.53 32.64 27.78 32.32 27.3C32 26.82 31.57 26.58 31.03 26.58C30.51 26.58 30.08 26.83 29.74 27.33C29.42 27.81 29.26 28.55 29.26 29.55C29.26 30.55 29.42 31.3 29.74 31.8C30.08 32.28 30.51 32.52 31.03 32.52ZM45.85 45.27C44.25 45.27 42.95 44.75 41.95 43.71C40.97 42.67 40.48 41.25 40.48 39.45C40.48 37.67 40.98 36.26 41.98 35.22C42.98 34.16 44.27 33.63 45.85 33.63C47.45 33.63 48.75 34.16 49.75 35.22C50.75 36.26 51.25 37.67 51.25 39.45C51.25 41.25 50.75 42.67 49.75 43.71C48.75 44.75 47.45 45.27 45.85 45.27ZM45.85 42.42C46.39 42.42 46.82 42.18 47.14 41.7C47.46 41.22 47.62 40.47 47.62 39.45C47.62 38.43 47.46 37.68 47.14 37.2C46.82 36.72 46.39 36.48 45.85 36.48C45.31 36.48 44.88 36.72 44.56 37.2C44.24 37.68 44.08 38.43 44.08 39.45C44.08 40.47 44.24 41.22 44.56 41.7C44.88 42.18 45.31 42.42 45.85 42.42Z" fill="white"/>
<g filter="url(#filter0_dd)">
<circle cx="38.5" cy="34.5" r="23" stroke="white"/>
</g>
<defs>
<filter id="filter0_dd" x="0" y="0" width="77" height="77" filterUnits="userSpaceOnUse" color-interpolation-filters="sRGB">
<feFlood flood-opacity="0" result="BackgroundImageFix"/>
<feColorMatrix in="SourceAlpha" type="matrix" values="0 0 0 0 0 0 0 0 0 0 0 0 0 0 0 0 0 0 127 0"/>
<feOffset dy="4"/>
<feGaussianBlur stdDeviation="2"/>
<feColorMatrix type="matrix" values="0 0 0 0 1 0 0 0 0 1 0 0 0 0 1 0 0 0 0.25 0"/>
<feBlend mode="normal" in2="BackgroundImageFix" result="effect1_dropShadow"/>
<feColorMatrix in="SourceAlpha" type="matrix" values="0 0 0 0 0 0 0 0 0 0 0 0 0 0 0 0 0 0 127 0"/>
<feOffset dy="4"/>
<feGaussianBlur stdDeviation="7.5"/>
<feColorMatrix type="matrix" values="0 0 0 0 1 0 0 0 0 1 0 0 0 0 1 0 0 0 0.25 0"/>
<feBlend mode="normal" in2="effect1_dropShadow" result="effect2_dropShadow"/>
<feBlend mode="normal" in="SourceGraphic" in2="effect2_dropShadow" result="shape"/>
</filter>
</defs>
</svg>
