<svg width="112" height="17" viewBox="0 0 112 17" fill="none" xmlns="http://www.w3.org/2000/svg">
<path d="M16.3414 5.50113L11.6364 5.0589C11.3398 5.0321 11.0837 4.84448 10.9623 4.56306L9.27717 0.50254C9.00755 -0.167513 8.05037 -0.167513 7.78074 0.50254L6.10905 4.56306C6.0012 4.84448 5.73158 5.0321 5.43499 5.0589L0.729989 5.50113C0.0289576 5.56814 -0.254151 6.43921 0.271622 6.90825L3.81722 10.0039C4.0464 10.2049 4.14077 10.4997 4.07337 10.7946L3.00834 15.1365C2.84656 15.8199 3.58804 16.3828 4.20818 16.021L8.13126 13.7294C8.3874 13.582 8.69748 13.582 8.95362 13.7294L12.8767 16.021C13.4968 16.3828 14.2383 15.8334 14.0765 15.1365L13.025 10.7946C12.9576 10.4997 13.052 10.2049 13.2811 10.0039L16.8267 6.90825C17.339 6.43921 17.0424 5.56814 16.3414 5.50113Z" fill="#FC9B09"/>
<path d="M40.0702 5.50113L35.3652 5.0589C35.0686 5.0321 34.8124 4.84448 34.6911 4.56306L33.0059 0.50254C32.7363 -0.167513 31.7791 -0.167513 31.5095 0.50254L29.8378 4.56306C29.73 4.84448 29.4603 5.0321 29.1637 5.0589L24.4587 5.50113C23.7577 5.56814 23.4746 6.43921 24.0004 6.90825L27.546 10.0039C27.7752 10.2049 27.8695 10.4997 27.8021 10.7946L26.7371 15.1365C26.5753 15.8199 27.3168 16.3828 27.9369 16.021L31.86 13.7294C32.1162 13.582 32.4262 13.582 32.6824 13.7294L36.6055 16.021C37.2256 16.3828 37.9671 15.8334 37.8053 15.1365L36.7538 10.7946C36.6863 10.4997 36.7807 10.2049 37.0099 10.0039L40.5555 6.90825C41.0678 6.43921 40.7712 5.56814 40.0702 5.50113Z" fill="#FC9B09"/>
<path d="M63.7989 5.50113L59.0939 5.0589C58.7973 5.0321 58.5412 4.84448 58.4199 4.56306L56.7347 0.50254C56.4651 -0.167513 55.5079 -0.167513 55.2383 0.50254L53.5666 4.56306C53.4587 4.84448 53.1891 5.0321 52.8925 5.0589L48.1875 5.50113C47.4865 5.56814 47.2034 6.43921 47.7291 6.90825L51.2747 10.0039C51.5039 10.2049 51.5983 10.4997 51.5309 10.7946L50.4659 15.1365C50.3041 15.8199 51.0456 16.3828 51.6657 16.021L55.5888 13.7294C55.8449 13.582 56.155 13.582 56.4111 13.7294L60.3342 16.021C60.9544 16.3828 61.6958 15.8334 61.5341 15.1365L60.4825 10.7946C60.4151 10.4997 60.5095 10.2049 60.7387 10.0039L64.2843 6.90825C64.7966 6.43921 64.5 5.56814 63.7989 5.50113Z" fill="#FC9B09"/>
<path d="M87.5279 5.50113L82.8229 5.0589C82.5263 5.0321 82.2702 4.84448 82.1489 4.56306L80.4637 0.50254C80.1941 -0.167513 79.2369 -0.167513 78.9673 0.50254L77.2956 4.56306C77.1877 4.84448 76.9181 5.0321 76.6215 5.0589L71.9165 5.50113C71.2155 5.56814 70.9324 6.43921 71.4581 6.90825L75.0037 10.0039C75.2329 10.2049 75.3273 10.4997 75.2599 10.7946L74.1949 15.1365C74.0331 15.8199 74.7746 16.3828 75.3947 16.021L79.3178 13.7294C79.5739 13.582 79.884 13.582 80.1401 13.7294L84.0632 16.021C84.6834 16.3828 85.4248 15.8334 85.2631 15.1365L84.2115 10.7946C84.1441 10.4997 84.2385 10.2049 84.4677 10.0039L88.0133 6.90825C88.5256 6.43921 88.229 5.56814 87.5279 5.50113Z" fill="#FC9B09"/>
<path d="M111.257 5.50113L106.552 5.0589C106.255 5.0321 105.999 4.84448 105.878 4.56306L104.192 0.50254C103.923 -0.167513 102.966 -0.167513 102.696 0.50254L101.024 4.56306C100.916 4.84448 100.647 5.0321 100.35 5.0589L95.6453 5.50113C94.9442 5.56814 94.6611 6.43921 95.1869 6.90825L98.7325 10.0039C98.9617 10.2049 99.0561 10.4997 98.9887 10.7946L97.9236 15.1365C97.7618 15.8199 98.5033 16.3828 99.1235 16.021L103.047 13.7294C103.303 13.582 103.613 13.582 103.869 13.7294L107.792 16.021C108.412 16.3828 109.154 15.8334 108.992 15.1365L107.94 10.7946C107.873 10.4997 107.967 10.2049 108.196 10.0039L111.742 6.90825C112.254 6.43921 111.958 5.56814 111.257 5.50113Z" fill="#FC9B09"/>
</svg>
